<?xml version="1.0" standalone="no"?>
<!DOCTYPE svg PUBLIC "-//W3C//DTD SVG 20010904//EN"
 "http://www.w3.org/TR/2001/REC-SVG-20010904/DTD/svg10.dtd">
<svg version="1.0" xmlns="http://www.w3.org/2000/svg"
 width="964.000000pt" height="544.000000pt" viewBox="0 0 964.000000 544.000000"
 preserveAspectRatio="xMidYMid meet">

<g transform="translate(0.000000,544.000000) scale(0.100000,-0.100000)"
fill="#000000" stroke="none">
<path d="M0 2725 l0 -2715 4815 0 4815 0 0 2715 0 2715 -4815 0 -4815 0 0
-2715z m5577 2092 c7 -8 -3 -19 -350 -389 l-269 -288 -687 0 c-731 0 -785 -3
-931 -50 -249 -81 -445 -259 -516 -470 -15 -43 -19 -84 -18 -185 0 -124 2
-133 31 -195 74 -158 200 -253 397 -300 75 -19 121 -20 661 -20 l580 0 144
151 144 150 946 -4 c1026 -4 1021 -4 1245 -62 314 -82 541 -268 617 -505 27
-82 35 -237 20 -352 -50 -372 -351 -703 -733 -804 -38 -10 -68 -22 -68 -26 0
-4 30 -41 67 -80 133 -146 597 -740 586 -752 -3 -3 -244 -6 -535 -6 l-528 0
-230 345 -230 345 -605 0 c-333 0 -605 -3 -605 -8 0 -8 -69 -395 -101 -569
l-21 -113 -397 0 c-219 0 -400 2 -403 5 -3 3 -1 31 4 63 11 64 118 681 178
1024 22 124 40 228 40 231 0 3 537 7 1193 9 l1192 4 77 26 c101 34 157 67 207
124 41 47 71 121 71 174 0 89 -68 176 -165 212 -59 21 -74 22 -865 31 l-805 9
-145 -151 -146 -152 -774 4 -775 4 -110 25 c-292 69 -497 177 -675 358 -209
212 -304 447 -304 755 0 215 33 355 130 550 193 390 594 691 1080 814 221 56
282 64 579 71 324 9 1793 6 1802 -3z m520 -1027 c60 -26 76 -56 71 -134 -5
-78 -35 -123 -105 -157 -41 -20 -63 -24 -158 -24 -87 0 -118 4 -147 18 -65 33
-90 96 -69 175 22 80 88 129 196 146 54 8 169 -5 212 -24z m-927 12 c0 -4 -17
-24 -37 -44 -37 -35 -40 -36 -143 -42 -121 -8 -153 -23 -158 -75 -5 -52 10
-61 104 -61 46 0 84 4 84 9 0 13 -38 21 -105 21 l-59 0 39 40 39 40 108 0
c107 0 108 0 103 -22 -2 -13 -9 -52 -15 -88 -18 -110 -2 -100 -163 -100 -164
0 -197 11 -234 76 -28 49 -29 86 -2 141 22 46 61 79 118 99 40 14 321 20 321
6z m407 -3 c51 -19 73 -48 73 -97 0 -36 -6 -50 -32 -76 -18 -18 -40 -35 -48
-38 -12 -4 -11 -9 6 -29 12 -13 29 -36 39 -51 l17 -28 -71 0 -71 0 -26 40 -27
40 -72 0 -73 0 -7 -39 c-6 -36 -9 -39 -47 -44 -73 -10 -77 -2 -56 108 11 62
12 63 47 69 20 3 94 6 164 6 107 0 129 3 134 16 3 8 1 20 -4 25 -5 5 -78 12
-162 16 l-152 6 43 44 42 43 127 0 c70 0 140 -5 156 -11z m773 0 c0 -6 -7 -54
-16 -107 -16 -91 -16 -96 2 -109 23 -17 144 -17 168 0 11 8 24 48 38 120 l21
107 53 0 c49 0 54 -2 54 -22 0 -45 -29 -187 -44 -217 -34 -65 -113 -100 -226
-101 -72 0 -122 15 -161 47 l-32 27 6 80 c3 45 11 105 17 134 l12 52 54 0 c33
0 54 -4 54 -11z m737 -6 c71 -33 81 -122 20 -180 -40 -39 -90 -53 -189 -53
-101 0 -128 -10 -128 -50 l0 -30 -61 0 c-53 0 -60 2 -55 18 3 9 8 42 11 73 4
31 11 62 16 70 6 11 46 15 166 19 150 5 158 6 158 25 0 25 -49 33 -203 34
l-103 1 37 45 36 45 130 0 c100 0 138 -4 165 -17z"/>
<path d="M5857 3710 c-44 -13 -57 -29 -57 -71 0 -53 26 -69 110 -68 87 0 131
16 143 52 15 46 2 75 -41 86 -43 13 -115 13 -155 1z"/>
</g>
</svg>
